# xmcd
#
# Track frame offsets: 
#        150
#        17673
#        33040
#        52540
#        67086
#        92022
#        110820
#        130762
#        144584
#        158530
#        175431
#        189787
#        200930
#        213344
#        229132
#        245365
#        265737
#        280871
#        300540
#        319381
#
# Disc length: 4376 seconds
#
# Revision: 2
# Processed by: cddbd v1.5.2PL0 Copyright (c) Steve Scherf et al.
# Submitted via: ExactAudioCopyFreeDBPlugin 1.0
#
DISCID=16111614
DTITLE=Various Artist - Saturday Night Country - Hottest Hits Volume 2
DYEAR=2006
DGENRE=Country
TTITLE0=Jetty Road - Run To You
TTITLE1=Neil Murray - Menindee
TTITLE2=Tinpan Orange - Sleep Away
TTITLE3=John Williamson - Chandelier Of Stars
TTITLE4=Beccy Cole - Jesse
TTITLE5=Camille Te Nahu and Stuart French - There'll Be Some Changes Mad
TTITLE5=e
TTITLE6=The Notorious Cherry Bombs - It's Hard To Kiss The Lips At Nig
TTITLE6=ht That Chew Your Ass Out All Day Long
TTITLE7=Karl Broadie - Black Crow Callin'
TTITLE8=Audrey Auld Mezera - Love You Like The Earth
TTITLE9=Travis Collins - 1000 Memories
TTITLE10=Bob Howe - Last Cowboy Waltz
TTITLE11=Paul Kelly and The Storm Water Boys featuring Kasey Chambers - 
TTITLE11=You're Learning
TTITLE12=Arthur Blanch - Life's Been Good To Me
TTITLE13=Lee Kernaghan - Down Under
TTITLE14=Bob Pigott - Aunty Bonnie
TTITLE15=The Greencards - Time
TTITLE16=Adam Harvey - Lady Lay Down
TTITLE17=Jake Nickolai - Think About You
TTITLE18=Willie Nelson - It Always Will Be (Album Version)
TTITLE19=John Beland - Because They're Young
EXTD=
EXTT0=
EXTT1=
EXTT2=
EXTT3=
EXTT4=
EXTT5=
EXTT6=
EXTT7=
EXTT8=
EXTT9=
EXTT10=
EXTT11=
EXTT12=
EXTT13=
EXTT14=
EXTT15=
EXTT16=
EXTT17=
EXTT18=
EXTT19=
PLAYORDER=
